<?xml version="1.0" encoding="UTF-8"?>
<svg id="COMMUN_S_" data-name="COMMUN(S)" xmlns="http://www.w3.org/2000/svg" viewBox="0 0 595.28 595.28">
  <defs>
    <style>
      .cls-1 {
        fill: #fff;
      }
    </style>
  </defs>
  <rect class="cls-1" x="423.18" y="104.93" width="45.49" height="61.59" transform="translate(34.64 355.07) rotate(-45)"/>
  <g>
    <rect width="595.28" height="595.28"/>
    <path class="cls-1" d="M548.97,384.91c-.06-.23-.12-.46-.17-.69-8.5-33.09-33.11-59.68-65.08-71.72l-38.34-14.44,38.46-14.24c32.03-11.86,56.78-38.31,65.45-71.34.06-.23.12-.46.18-.68,5.88-22.86,5.85-45.82-.08-68.89-5.93-23.06-17.58-43.34-34.96-60.82-17.74-17.83-38.04-29.69-60.89-35.57-22.85-5.88-45.72-5.94-68.62-.19-.23.06-.46.12-.69.17-33.97,8.73-60.48,35.31-70.17,69.02l-16.05,55.85-15.75-55.97c-9.5-33.75-35.86-60.47-69.77-69.38-.23-.06-.46-.12-.68-.18-22.86-5.88-45.82-5.85-68.89.08-23.06,5.93-43.34,17.58-60.82,34.96-17.83,17.73-29.69,38.04-35.57,60.89-5.88,22.85-5.94,45.72-.19,68.62.06.23.12.46.17.69,8.5,33.09,33.12,59.68,65.09,71.72l38.34,14.44-38.45,14.24c-32.03,11.86-56.78,38.31-65.45,71.34-.06.23-.12.46-.18.68-5.88,22.86-5.85,45.82.08,68.89,5.93,23.06,17.58,43.34,34.96,60.82,17.73,17.83,38.04,29.69,60.89,35.57,22.85,5.88,45.72,5.94,68.62.19.23-.06.46-.12.69-.17,33.97-8.73,60.48-35.31,70.17-69.02l16.05-55.85,15.75,55.97c9.5,33.75,35.86,60.47,69.77,69.38.23.06.46.12.68.18,22.86,5.88,45.82,5.85,68.89-.08,23.06-5.93,43.34-17.58,60.82-34.96,17.83-17.73,29.69-38.04,35.57-60.89,5.88-22.85,5.94-45.72.19-68.62Z"/>
    <path d="M421.84,297.64c24.82-15.97,41.26-43.84,41.26-75.56,0-49.59-40.2-89.78-89.78-89.78-31.79,0-59.73,16.53-75.68,41.46-15.95-24.93-43.89-41.46-75.68-41.46-49.59,0-89.78,40.2-89.78,89.78,0,31.71,16.44,59.58,41.26,75.56-24.82,15.97-41.26,43.84-41.26,75.56,0,49.59,40.2,89.78,89.78,89.78,31.79,0,59.73-16.53,75.68-41.46,15.95,24.93,43.89,41.46,75.68,41.46,49.59,0,89.78-40.2,89.78-89.78,0-31.71-16.44-59.58-41.26-75.56ZM297.64,324.86c-6.98-10.91-16.26-20.22-27.16-27.23,10.9-7.01,20.18-16.31,27.16-27.23,6.98,10.91,16.26,20.22,27.16,27.23-10.9,7.01-20.18,16.31-27.16,27.23Z"/>
  </g>
</svg>